PathFileType	4	(X/Y/Z)	s02c0302.trc
DataRate	CameraRate	NumFrames	NumMarkers	Units	OrigDataRate	OrigDataStartFrame	OrigNumFrames
200	200	4	51	mm	200	500	2000
Frame#	Time	racr			lacr			c7			jug			rlel			rdr			llel			ldr			s2			lic			ric			lasi			rasi			rpsi			lpsi			rgt			lgt			rth1			rth2			rth3			rth4			rlfc			rmfc			rsh1			rsh2			rsh3			rsh4			rlmal			rmmal			rcal			rtoe			rmt5			rmt1			lth1			lth2			lth4			lth3			llfc			lmfc			lsh1			lsh2			lsh3			lsh4			llmal			lmmal			lcal			ltoe			lmt5			SBIKE			LBIKE			RBIKE			
		X1	Y1	Z1	X2	Y2	Z2	X3	Y3	Z3	X4	Y4	Z4	X5	Y5	Z5	X6	Y6	Z6	X7	Y7	Z7	X8	Y8	Z8	X9	Y9	Z9	X10	Y10	Z10	X11	Y11	Z11	X12	Y12	Z12	X13	Y13	Z13	X14	Y14	Z14	X15	Y15	Z15	X16	Y16	Z16	X17	Y17	Z17	X18	Y18	Z18	X19	Y19	Z19	X20	Y20	Z20	X21	Y21	Z21	X22	Y22	Z22	X23	Y23	Z23	X24	Y24	Z24	X25	Y25	Z25	X26	Y26	Z26	X27	Y27	Z27	X28	Y28	Z28	X29	Y29	Z29	X30	Y30	Z30	X31	Y31	Z31	X32	Y32	Z32	X33	Y33	Z33	X34	Y34	Z34	X35	Y35	Z35	X36	Y36	Z36	X37	Y37	Z37	X38	Y38	Z38	X39	Y39	Z39	X40	Y40	Z40	X41	Y41	Z41	X42	Y42	Z42	X43	Y43	Z43	X44	Y44	Z44	X45	Y45	Z45	X46	Y46	Z46	X47	Y47	Z47	X48	Y48	Z48	X49	Y49	Z49	X50	Y50	Z50	X51	Y51	Z51	
500	2.5000	490.326607	1281.093132	-135.920692	502.968790	1279.321946	-482.772567	514.041205	1308.529092	-313.302466	454.674993	1182.016974	-309.762551	608.106690	1038.031205	-116.520126	734.969597	845.384884	-139.199513	580.090708	1019.534720	-541.486636	721.729272	837.747343	-487.747336	-5.951214	1116.510344	-333.501493	139.802970	1086.761745	-466.227985	117.877876	1105.067967	-183.663320	183.352085	1047.722798	-439.207642	169.173752	1080.541052	-212.277402	10.879077	1146.516511	-292.355168	29.756189	1146.984497	-382.110008	84.500479	1045.570022	-138.411554	79.415887	1002.841986	-502.953728	173.275098	1019.695813	-134.568000	260.750437	1009.040573	-142.266008	332.393401	968.838392	-117.092075	270.574829	1030.592906	-172.027544	454.241602	880.274977	-150.736147	450.145070	859.584692	-262.047077	443.707833	767.379640	-134.669227	433.002826	679.686528	-154.073716	388.499078	607.078699	-147.826940	448.807113	678.049018	-189.718133	339.891673	498.854050	-154.211755	348.492731	518.579706	-233.952128	264.890762	453.062421	-198.058773	548.549613	428.861942	-194.151718	439.263067	418.320728	-136.328360	466.917268	430.757153	-244.120403	185.939773	908.022376	-516.024901	256.921457	857.630543	-511.593707	281.454641	878.167287	-493.389054	291.977103	775.609113	-510.858579	348.381581	692.226472	-486.139481	348.139697	664.319163	-379.601016	299.680512	600.219361	-504.433329	267.634438	521.504543	-487.704718	197.991449	464.374906	-491.584080	284.096751	513.338738	-451.285272	123.900773	393.147230	-475.120939	138.470805	381.031433	-398.781977	46.465301	389.976065	-434.663423	251.838448	190.209492	-443.589173	156.561402	243.303063	-503.487543	-129.554980	869.361937	-314.564635	32.496995	82.216440	-515.312696	32.809008	81.900582	-115.385945	
501	2.5050	490.447736	1281.182397	-135.988391	503.016038	1279.393070	-482.806137	513.991527	1308.689686	-313.336930	454.703815	1182.066420	-309.818842	608.173926	1038.080729	-116.624400	734.966507	845.405829	-139.177018	580.093967	1019.546925	-541.558248	721.709508	837.778676	-487.773397	-6.017646	1116.513327	-333.452451	139.803825	1086.721573	-466.229206	117.895278	1105.041988	-183.689289	183.371372	1047.683652	-439.217432	169.183854	1080.508075	-212.265324	10.871201	1146.501963	-292.329122	29.917237	1147.070418	-382.169029	84.492400	1045.609003	-138.406778	79.447329	1002.823521	-502.957609	173.286595	1019.733640	-134.562537	260.746720	1009.090265	-142.279186	332.411252	968.889616	-117.133159	270.551737	1030.657177	-172.020285	454.260869	880.350434	-150.762694	450.162717	859.660305	-262.083957	443.359370	767.514724	-134.974919	432.996337	679.764752	-154.076431	388.527604	607.167769	-147.831866	448.826413	678.106653	-189.737463	339.927387	498.970471	-154.205000	348.556600	518.657574	-233.946520	264.931727	453.148638	-198.058308	548.559599	428.865488	-194.147536	439.289038	418.335003	-136.314968	466.914554	430.763255	-244.113457	186.006609	908.019168	-515.985926	256.966907	857.610756	-511.552138	281.504323	878.135591	-493.348367	292.011530	775.568555	-510.847832	348.369209	692.166830	-486.133488	348.142434	664.253668	-379.601488	299.635461	600.184751	-504.433754	267.610523	521.472458	-487.716710	197.932967	464.302572	-491.520611	284.025516	513.391827	-451.165167	123.861605	393.103485	-475.115389	138.438355	381.024885	-398.794750	46.417828	389.911909	-434.664398	251.862402	190.219903	-443.576080	156.561842	243.282860	-503.487619	-129.551105	869.364503	-314.557214	32.494091	82.199152	-515.298421	32.816137	81.968543	-115.416538	
502	2.5100	490.573407	1281.278550	-136.049995	503.070674	1279.452293	-482.832591	513.964890	1308.850428	-313.482665	454.737812	1182.104381	-309.819139	608.208139	1038.111548	-116.674942	734.978378	845.433816	-139.187413	580.069090	1019.521545	-541.642834	721.729192	837.775172	-487.783373	-6.044614	1116.489610	-333.456551	139.825949	1086.682505	-466.215613	117.912208	1105.034313	-183.701813	183.396698	1047.656975	-439.210872	169.192912	1080.487248	-212.245512	10.827111	1146.486819	-292.315744	29.874364	1147.063361	-382.152038	84.496028	1045.624968	-138.409786	79.488971	1002.785295	-502.945421	173.306728	1019.762650	-134.560365	260.737080	1009.118568	-142.302673	332.406661	968.968652	-117.162245	270.555190	1030.690281	-172.060488	454.288159	880.457119	-150.756024	450.195224	859.747774	-262.097558	443.370730	767.585229	-134.988161	433.001661	679.832811	-154.068775	388.570250	607.255291	-147.817770	448.904274	678.160468	-189.689537	339.972650	499.043617	-154.198405	348.635075	518.731064	-233.938901	264.972483	453.253475	-198.064319	548.575128	428.836610	-194.137709	439.307970	418.385678	-136.334464	466.940553	430.778215	-244.130637	186.060006	908.004768	-515.949723	257.003566	857.565712	-511.530751	281.552596	878.081588	-493.318250	292.000115	775.501195	-510.823744	348.203986	691.888215	-485.696502	348.152880	664.173675	-379.620066	299.580519	600.141004	-504.417684	267.546848	521.421655	-487.697814	197.849348	464.296168	-491.498679	283.963485	513.333852	-451.149857	123.777443	393.060090	-475.129515	138.367386	381.019512	-398.791406	46.331180	389.839557	-434.649566	251.872139	190.276043	-443.584706	156.559101	243.249541	-503.483342	-129.555946	869.374918	-314.566965	32.496691	82.200884	-515.317138	32.470081	82.181888	-115.568749	
503	2.5150	490.700944	1281.371650	-136.097557	503.145882	1279.526647	-482.845322	513.913091	1309.025331	-313.542625	454.780638	1182.147132	-309.858896	608.233616	1038.134539	-116.712855	734.984027	845.458968	-139.136734	580.047821	1019.511120	-541.720012	721.715402	837.780669	-487.782990	-6.013237	1116.614865	-333.498131	139.823226	1086.647767	-466.237999	117.865753	1105.012873	-183.710884	183.406549	1047.545384	-439.141521	169.197180	1080.442217	-212.243945	10.818784	1146.463085	-292.336159	29.852553	1147.035917	-382.163845	84.488380	1045.636812	-138.409482	79.641067	1002.712504	-502.721153	173.309558	1019.805116	-134.554917	260.742622	1009.161471	-142.324607	332.424588	969.032907	-117.178255	270.542620	1030.725359	-172.083961	454.298648	880.522334	-150.781230	450.212409	859.811176	-262.134803	443.767487	767.634098	-134.726176	433.041110	679.918061	-154.070654	388.610081	607.332031	-147.794203	448.942322	678.231375	-189.684292	340.070765	499.088601	-154.205416	348.678344	518.801581	-233.943496	265.018702	453.381127	-198.046891	548.606969	428.803334	-194.146289	439.324402	418.384905	-136.346433	466.974961	430.772362	-244.115562	186.110107	907.983461	-515.921856	257.028573	857.511724	-511.491726	281.575899	878.009115	-493.285369	292.020679	775.423275	-510.806845	348.332917	691.992302	-486.065409	348.148455	664.143476	-379.639972	299.524233	600.090154	-504.418510	267.457465	521.390810	-487.700495	197.741711	464.260205	-491.500143	283.875184	513.293473	-451.161073	123.631137	393.036640	-475.109556	138.232117	381.005458	-398.786093	46.182178	389.758817	-434.655523	251.885259	190.382097	-443.587623	156.555608	243.340235	-503.546315	-129.551087	869.361921	-314.559329	32.493657	82.201870	-515.300028	32.472173	82.173325	-115.559264	
